<?xml version="1.0" encoding="utf-8"?>
<!-- Generator: Adobe Illustrator 27.5.0, SVG Export Plug-In . SVG Version: 6.00 Build 0)  -->
<svg version="1.1" id="Layer_1" xmlns="http://www.w3.org/2000/svg" xmlns:xlink="http://www.w3.org/1999/xlink" x="0px" y="0px"
	 viewBox="0 0 4000 9000" style="enable-background:new 0 0 4000 9000;" xml:space="preserve">
<g>
	<rect x="1.059" y="2.561" style="fill-rule:evenodd;clip-rule:evenodd;fill:#01052D;" width="4200" height="8997.439"/>
	<g>
		<defs>
			<path id="SVGID_1_" d="M1857.752,9000c-353.776-76.526-712.723-181.992-920.696-363.74
				c-263.093-229.92-284.139-582.959,254.723-1156.314c635.901-676.623,699.165-1019.174,505.507-1188.416
				c-213.255-186.359-738.305-160.622-1151.912-140.339l-32.809,1.604c-159.582,7.763-340.691-19.955-511.507-81.439v7.854
				c171.04,61.169,352.175,88.702,511.9,80.926l32.805-1.607c412.214-20.202,935.504-45.854,1146.415,138.462
				c190.394,166.391,125.972,505.521-506.063,1178.022c-542.725,577.472-520.514,933.939-254.171,1166.701
				c202.8,177.222,547.397,282.125,891.416,358.285H1857.752z"/>
		</defs>
		<clipPath id="SVGID_00000072983803412828319460000017357120160363649184_">
			<use xlink:href="#SVGID_1_"  style="overflow:visible;"/>
		</clipPath>
		
			<linearGradient id="SVGID_00000005238833742103642720000012638490880172130238_" gradientUnits="userSpaceOnUse" x1="493.1388" y1="8017.2773" x2="2362.554" y2="6029.2383">
			<stop  offset="0" style="stop-color:#0131B8"/>
			<stop  offset="1" style="stop-color:#39D4FF"/>
		</linearGradient>
		
			<rect x="1.059" y="6071.356" style="clip-path:url(#SVGID_00000072983803412828319460000017357120160363649184_);fill:url(#SVGID_00000005238833742103642720000012638490880172130238_);" width="1889.885" height="2928.644"/>
	</g>
	<g>
		<defs>
			<path id="SVGID_00000132057650672337457840000000243475809442872480_" d="M2208.836,9000
				c-419.971-80.426-922.417-184.128-1182.25-409.695c-252.807-219.472-275.58-555.358,232.729-1099.804l0.029-0.026
				c575.479-629.138,605.138-950.732,407.205-1119.09c-191.07-162.514-594.268-180.859-922.368-195.784
				c-71.916-3.27-140.219-6.376-202.054-10.825c-124.202-30.682-333.369-82.796-541.069-169.271v8.017
				c207.414,86.02,415.734,137.9,539.517,168.469l0.665,0.107c61.686,4.442,130.313,7.562,202.576,10.851
				c326.912,14.867,728.639,33.149,917.683,193.94c194.674,165.583,163.764,483.783-407.841,1108.697
				c-512.179,548.583-488.257,887.871-232.187,1110.178c253.642,220.197,735.402,324.597,1148.308,404.237H2208.836z"/>
		</defs>
		<clipPath id="SVGID_00000053510554106215762310000007093904864814384522_">
			<use xlink:href="#SVGID_00000132057650672337457840000000243475809442872480_"  style="overflow:visible;"/>
		</clipPath>
		
			<linearGradient id="SVGID_00000174597133876053826400000012631455473766893222_" gradientUnits="userSpaceOnUse" x1="558.5669" y1="8078.8042" x2="2427.9805" y2="6090.7666">
			<stop  offset="0" style="stop-color:#0131B8"/>
			<stop  offset="1" style="stop-color:#39D4FF"/>
		</linearGradient>
		
			<rect x="1.059" y="5995.505" style="clip-path:url(#SVGID_00000053510554106215762310000007093904864814384522_);fill:url(#SVGID_00000174597133876053826400000012631455473766893222_);" width="2207.778" height="3004.495"/>
	</g>
	<g>
		<defs>
			<path id="SVGID_00000120526810553176203570000017590392727922517399_" d="M2558.235,9000
				c-78.744-17.25-166.336-34.257-258.901-52.225c-412.244-80.017-923.033-179.164-1183.25-403.409
				c-242.538-209.015-267.044-527.741,210.781-1043.31l0.049-0.049c515.52-581.313,514.53-881.978,312.707-1048.398
				c-171.352-141.303-487.507-184.855-754.516-221.632c-120.17-16.545-230.365-31.734-312.671-53.822
				c-49.039-57.224-187.459-109.588-353.753-172.495c-69.202-26.176-143.245-54.192-217.622-85.102v8.007
				c73.455,30.455,146.511,58.094,214.852,83.945c166.157,62.854,304.337,115.134,351.383,171.193l0.779,0.916l1.175,0.321
				c82.764,22.354,193.732,37.64,314.788,54.313c265.992,36.633,580.943,80.014,750.607,219.93
				c198.557,163.726,198.17,461.03-313.512,1038.028c-481.614,519.689-455.936,841.803-210.128,1053.629
				c261.785,225.605,773.682,324.97,1186.821,405.155c79.64,15.458,155.602,30.212,225.365,45.004H2558.235z"/>
		</defs>
		<clipPath id="SVGID_00000017489567852371034740000016230811375420893077_">
			<use xlink:href="#SVGID_00000120526810553176203570000017590392727922517399_"  style="overflow:visible;"/>
		</clipPath>
		
			<linearGradient id="SVGID_00000011723703046230693840000004079420411530714297_" gradientUnits="userSpaceOnUse" x1="632.3333" y1="8148.1689" x2="2501.7463" y2="6160.1318">
			<stop  offset="0" style="stop-color:#0131B8"/>
			<stop  offset="1" style="stop-color:#39D4FF"/>
		</linearGradient>
		
			<rect x="1.059" y="5919.56" style="clip-path:url(#SVGID_00000017489567852371034740000016230811375420893077_);fill:url(#SVGID_00000011723703046230693840000004079420411530714297_);" width="2557.176" height="3080.44"/>
	</g>
	<g>
		<defs>
			<path id="SVGID_00000109008695915401766620000017532479135420928658_" d="M2810.094,9000
				c-15.776-5.983-31.945-11.938-48.624-17.854l-0.143-0.056c-110.183-34.507-261.95-64.53-430.107-97.79
				c-393.555-77.841-877.179-173.511-1125.619-385.847c-232.304-198.541-258.557-500.115,188.816-986.83l0.091-0.098
				c456.309-533.296,427.9-813.013,222.661-976.3c-154.923-123.264-410.64-179.466-634.093-228.57
				c-159.859-35.13-303.132-66.621-380.198-116.238c3.597-117.998-207.726-195.619-455.111-286.457
				c-47.974-17.614-97.322-35.74-146.709-54.744v7.916c48.487,18.624,96.91,36.406,144.011,53.702
				c246.06,90.361,456.072,167.482,450.134,281.347l-0.101,2.055l1.776,1.166c77.799,51.02,222.713,82.868,384.503,118.413
				c222.619,48.922,477.367,104.91,630.927,227.09c201.907,160.647,228.836,437.026-223.622,965.842
				c-451.199,490.887-423.76,795.861-188.161,997.219c249.947,213.632,734.691,309.509,1129.158,387.535
				c167.91,33.212,319.444,63.189,429.289,97.599c10.205,3.623,20.175,7.257,30.032,10.899H2810.094z"/>
		</defs>
		<clipPath id="SVGID_00000141427487840149143420000004846612314031019395_">
			<use xlink:href="#SVGID_00000109008695915401766620000017532479135420928658_"  style="overflow:visible;"/>
		</clipPath>
		
			<linearGradient id="SVGID_00000138565834468616918980000005426733020079085221_" gradientUnits="userSpaceOnUse" x1="681.6155" y1="8194.5098" x2="2551.0295" y2="6206.4717">
			<stop  offset="0" style="stop-color:#0131B8"/>
			<stop  offset="1" style="stop-color:#39D4FF"/>
		</linearGradient>
		
			<rect x="1.059" y="5849.218" style="clip-path:url(#SVGID_00000141427487840149143420000004846612314031019395_);fill:url(#SVGID_00000138565834468616918980000005426733020079085221_);" width="2809.036" height="3150.782"/>
	</g>
	<g>
		<defs>
			<path id="SVGID_00000121256801976804159060000016408826245477553581_" d="M2970.482,9000
				c-53.695-27.607-115.345-54.683-185.644-81.195l-0.172-0.062c-107.878-34.722-256.843-64.776-421.549-98.011
				c-374.802-75.624-831.361-167.745-1068.022-368.143c-222.099-188.063-250.132-472.491,166.868-930.417l0.13-0.156
				c398.289-485.335,345.866-744.083,137.764-902.871c-141.813-108.215-355.925-169.472-548.501-224.557
				c-195.404-55.903-368.509-105.429-419.312-190.505c53.838-117.186-40.448-196.258-197.553-264.992
				c-85.958-37.611-190.998-72.218-300.727-108.361c-43.789-14.425-88.332-29.101-132.706-44.312v7.795
				c43.569,14.913,87.273,29.309,130.254,43.468c109.433,36.052,214.184,70.565,300.019,108.118
				c153.78,67.286,246.067,144.131,192.953,257.002l-0.789,1.685l0.925,1.617c51.137,88.653,226.593,138.849,424.763,195.538
				c191.907,54.896,405.276,115.946,545.953,223.284c204.719,156.203,255.538,411.659-138.933,892.403
				c-420.802,462.104-391.571,749.928-166.151,940.8c238.171,201.664,695.804,294.009,1071.495,369.812
				c164.462,33.186,313.204,63.191,420.62,97.761c64.462,24.314,121.546,49.098,171.865,74.299H2970.482z"/>
		</defs>
		<clipPath id="SVGID_00000129202872087982307160000011654750523958243510_">
			<use xlink:href="#SVGID_00000121256801976804159060000016408826245477553581_"  style="overflow:visible;"/>
		</clipPath>
		
			<linearGradient id="SVGID_00000098188593724770113970000013434980613372706994_" gradientUnits="userSpaceOnUse" x1="708.5062" y1="8219.7949" x2="2577.9216" y2="6231.7559">
			<stop  offset="0" style="stop-color:#0131B8"/>
			<stop  offset="1" style="stop-color:#39D4FF"/>
		</linearGradient>
		
			<rect x="1.059" y="5786.419" style="clip-path:url(#SVGID_00000129202872087982307160000011654750523958243510_);fill:url(#SVGID_00000098188593724770113970000013434980613372706994_);" width="2969.423" height="3213.581"/>
	</g>
	<g>
		<defs>
			<path id="SVGID_00000014593802136311734320000001798630464656855713_" d="M3086.382,9000
				c-69.663-49.445-161.209-97.68-278.164-144.527l-0.228-0.081c-105.546-34.961-251.729-65.085-412.977-98.313
				c-355.941-73.352-785.506-161.868-1010.414-350.305c-211.946-177.569-241.797-444.861,144.92-874.052l0.153-0.202
				c342.022-437.929,268.973-675.684,58.559-828.487c-131.732-95.67-317.275-157.628-488.153-214.69
				c-229.603-76.679-432.555-144.468-439.663-272.044c85.452-120.543,50.315-204.989-50.754-272.044
				c-104.998-69.657-281.642-120.125-467.361-173.193c-46.844-13.38-94.26-26.935-141.241-40.994v7.705
				c46.28,13.832,92.952,27.169,139.073,40.345c185.115,52.893,361.191,103.202,465.212,172.206
				c97.52,64.705,131.225,146.264,48.026,262.879l-0.714,1.003l0.055,1.256c6.127,133.31,211.95,202.054,444.88,279.84
				c170.342,56.887,355.295,118.65,486.049,213.605c206.982,150.307,278.327,384.848-59.948,818.052
				c-390.441,433.361-359.373,704.021-144.102,884.374c226.411,189.693,657.025,278.428,1013.833,351.954
				c160.985,33.176,306.934,63.254,411.961,98.026c111.673,44.734,199.934,90.68,267.902,137.687H3086.382z"/>
		</defs>
		<clipPath id="SVGID_00000057124947095517291120000015019039006344344709_">
			<use xlink:href="#SVGID_00000014593802136311734320000001798630464656855713_"  style="overflow:visible;"/>
		</clipPath>
		
			<linearGradient id="SVGID_00000181055060148447758120000006605589491403085490_" gradientUnits="userSpaceOnUse" x1="725.4502" y1="8235.7275" x2="2594.8655" y2="6247.6885">
			<stop  offset="0" style="stop-color:#0131B8"/>
			<stop  offset="1" style="stop-color:#39D4FF"/>
		</linearGradient>
		
			<rect x="1.059" y="5731.068" style="clip-path:url(#SVGID_00000057124947095517291120000015019039006344344709_);fill:url(#SVGID_00000181055060148447758120000006605589491403085490_);" width="3085.323" height="3268.932"/>
	</g>
	<g>
		<defs>
			<path id="SVGID_00000157291834983621976330000007843120620844522903_" d="M3167.932,9000
				c-69.114-71.163-178.053-140.602-336.347-207.846l-0.257-0.107c-103.147-35.23-246.603-65.458-404.422-98.712
				c-336.97-71.007-739.584-155.842-952.787-332.311c-201.859-167.066-233.56-417.231,122.936-817.75l0.224-0.27
				c288.197-391.73,197.515-608.541-14.88-753.834c-124.212-84.965-290.074-145.199-445.832-201.761
				c-264.041-95.884-498.819-181.147-447.825-357.444c124.374-142.92,111.29-240.525,20.536-314.132
				c-107.017-86.796-322.928-139.167-547.527-193.648c-53.526-12.98-107.553-26.088-160.693-39.802v7.614
				c52.556,13.539,105.939,26.491,158.836,39.318c223.732,54.267,438.802,106.436,544.485,192.148
				c87.319,70.818,99.332,165.296-22.02,304.424l-0.529,0.601l-0.224,0.763c-53.76,183.268,184.404,269.752,452.286,367.025
				c155.277,56.387,320.639,116.43,444.085,200.888c208.901,142.9,297.756,356.562,13.169,743.458
				c-360.126,404.659-327.175,658.158-122.001,827.987c214.674,177.67,618.31,262.727,956.134,333.905
				c157.514,33.195,300.7,63.367,403.458,98.462c153.439,65.195,259.973,132.342,328.46,201.024H3167.932z"/>
		</defs>
		<clipPath id="SVGID_00000082326272218363142150000001975019027224098466_">
			<use xlink:href="#SVGID_00000157291834983621976330000007843120620844522903_"  style="overflow:visible;"/>
		</clipPath>
		
			<linearGradient id="SVGID_00000061440218601349259660000005354291481689514415_" gradientUnits="userSpaceOnUse" x1="734.9422" y1="8244.6533" x2="2604.3569" y2="6256.6143">
			<stop  offset="0" style="stop-color:#0131B8"/>
			<stop  offset="1" style="stop-color:#39D4FF"/>
		</linearGradient>
		
			<rect x="1.059" y="5682.382" style="clip-path:url(#SVGID_00000082326272218363142150000001975019027224098466_);fill:url(#SVGID_00000061440218601349259660000005354291481689514415_);" width="3166.873" height="3317.618"/>
	</g>
	<g>
		<defs>
			<path id="SVGID_00000155144848022667699790000014179601103238431108_" d="M3221.562,9000
				c-55.543-92.536-171.167-183.248-366.591-271.174l-0.315-0.134c-100.848-35.591-241.563-65.951-395.873-99.244
				c-317.863-68.575-693.603-149.647-895.121-314.087c-191.852-156.557-225.466-389.613,100.946-761.548l0.279-0.36
				c237.632-347.665,131.462-543.706-83.153-680.106c-118.761-75.475-270.648-132.462-415.627-186.843
				c-96.553-36.221-190.047-71.302-268.379-109.829c-165.027-81.16-262.989-177.911-180.547-334.344
				c166.988-169.861,170.943-282.19,82.579-363.048c-108.478-99.264-357.198-149.543-612.661-201.177
				c-62.267-12.584-124.933-25.253-186.04-38.724v7.552c60.627,13.344,122.744,25.906,184.472,38.38
				c254.395,51.419,502.085,101.484,608.982,199.3c85.049,77.825,80.26,186.904-83.257,353.064l-0.383,0.39l-0.247,0.477
				c-85.66,161.937,14.5,261.492,183.644,344.685c78.725,38.715,172.365,73.848,269.07,110.127
				c144.634,54.257,296.168,111.105,414.208,186.119c210.992,134.105,315.236,327.064,81.114,669.739
				c-329.996,376.09-295.132,612.466-99.939,771.746c202.985,165.638,579.716,246.924,898.4,315.678
				c154.005,33.222,294.434,63.521,394.809,98.93c191.021,85.975,304.856,174.4,360.412,264.431H3221.562z"/>
		</defs>
		<clipPath id="SVGID_00000141415248020344072630000007694291328236456872_">
			<use xlink:href="#SVGID_00000155144848022667699790000014179601103238431108_"  style="overflow:visible;"/>
		</clipPath>
		
			<linearGradient id="SVGID_00000046340752692144816680000002600889438317332918_" gradientUnits="userSpaceOnUse" x1="738.4425" y1="8247.9473" x2="2607.8582" y2="6259.9072">
			<stop  offset="0" style="stop-color:#0131B8"/>
			<stop  offset="1" style="stop-color:#39D4FF"/>
		</linearGradient>
		
			<rect x="1.059" y="5639.382" style="clip-path:url(#SVGID_00000141415248020344072630000007694291328236456872_);fill:url(#SVGID_00000046340752692144816680000002600889438317332918_);" width="3220.503" height="3360.618"/>
	</g>
	<g>
		<defs>
			<path id="SVGID_00000137111111298897848900000004023265781483598465_" d="M3251.549,9000
				c-31.354-113.381-144.063-225.437-373.204-334.503l-0.341-0.143c-98.523-36.017-236.557-66.546-387.393-99.92
				c-298.567-66.049-647.482-143.241-837.383-295.654c-181.917-146.008-217.505-361.974,78.949-705.425l0.338-0.458
				c191.203-307.064,69.981-482.783-148.313-609.17c-114.303-66.182-255.233-118.702-391.643-169.531
				c-142.69-53.169-280.428-104.491-377.049-167.566c-132.488-86.485-187.287-195.505-69.783-363.101
				c212.015-198.781,231.732-326.217,143.193-414.075c-110.274-109.413-389.763-155.537-673.174-202.304
				c-72.231-11.916-144.719-23.88-214.687-36.938v7.494c69.591,12.961,141.621,24.844,213.401,36.686
				c282.168,46.565,560.44,92.491,668.986,200.19c85.338,84.679,64.936,208.791-143.332,403.958l-0.279,0.263l-0.221,0.305
				c-121.072,172.453-64.708,284.622,71.611,373.617c97.28,63.5,235.46,114.991,378.594,168.326
				c136.086,50.705,276.684,103.102,390.458,168.976c214.57,124.225,333.717,296.967,145.842,598.872
				c-299.918,347.574-263.038,566.823-77.754,715.535c191.291,153.527,541.16,230.934,840.562,297.168
				c150.433,33.282,288.113,63.737,386.172,99.556c225.177,107.212,336.49,216.992,368.146,327.844H3251.549z"/>
		</defs>
		<clipPath id="SVGID_00000155857294494764638780000004544656485941727885_">
			<use xlink:href="#SVGID_00000137111111298897848900000004023265781483598465_"  style="overflow:visible;"/>
		</clipPath>
		
			<linearGradient id="SVGID_00000000195636465244037160000012090123828581778076_" gradientUnits="userSpaceOnUse" x1="736.8756" y1="8246.4736" x2="2606.2908" y2="6258.4346">
			<stop  offset="0" style="stop-color:#0131B8"/>
			<stop  offset="1" style="stop-color:#39D4FF"/>
		</linearGradient>
		
			<rect x="1.059" y="5601.213" style="clip-path:url(#SVGID_00000155857294494764638780000004544656485941727885_);fill:url(#SVGID_00000000195636465244037160000012090123828581778076_);" width="3250.49" height="3398.787"/>
	</g>
	<g>
		<defs>
			<path id="SVGID_00000049213042890920878570000014574186906767580817_" d="M3260.829,9000
				c1.711-133.53-99.088-267.009-359.116-397.831l-0.357-0.166c-96.264-36.535-231.638-67.296-378.961-100.767
				c-279.083-63.406-601.219-136.605-779.49-276.886c-172.147-135.452-209.817-334.356,56.841-649.45l0.412-0.604
				c149.699-271.729,10.62-428.013-215.531-543.865c-109.163-55.922-238.762-102.39-365.779-147.917
				c-174.423-62.527-343.97-123.313-448.422-204.375c-123.313-95.719-155.511-220.398,3.922-411.517
				c258.707-228.765,293.837-371.334,204.041-465.786c-112.426-118.257-422.075-158.897-732.142-199.589
				c-82.972-10.886-165.975-21.779-245.187-34.156v7.455c78.942,12.312,161.579,23.16,244.184,34
				c308.688,40.51,616.963,80.962,727.538,197.268c86.679,91.179,50.958,230.378-203.843,455.621l-0.383,0.393
				c-163.242,195.573-129.835,323.542-2.922,422.042c105.387,81.786,275.535,142.793,450.572,205.541
				c126.689,45.413,255.953,91.76,364.841,147.537c222.275,113.868,359.071,267.297,212.505,533.614
				c-269.996,319.224-231.008,521.375-55.475,659.493c179.648,141.361,502.686,214.762,782.568,278.353
				c146.959,33.39,282.002,64.078,377.76,100.4c256.388,129.03,355.925,260.229,354.506,391.191H3260.829z"/>
		</defs>
		<clipPath id="SVGID_00000169555584552474053070000016654055964104617357_">
			<use xlink:href="#SVGID_00000049213042890920878570000014574186906767580817_"  style="overflow:visible;"/>
		</clipPath>
		
			<linearGradient id="SVGID_00000078752288143879703640000016456659170592614073_" gradientUnits="userSpaceOnUse" x1="731.2795" y1="8241.209" x2="2600.6941" y2="6253.1699">
			<stop  offset="0" style="stop-color:#0131B8"/>
			<stop  offset="1" style="stop-color:#39D4FF"/>
		</linearGradient>
		
			<rect x="1.059" y="5567.092" style="clip-path:url(#SVGID_00000169555584552474053070000016654055964104617357_);fill:url(#SVGID_00000078752288143879703640000016456659170592614073_);" width="3261.481" height="3432.907"/>
	</g>
	<g>
		<defs>
			<path id="SVGID_00000098193730492031174290000014969967333162778010_" d="M3251.588,9000
				c42.354-152.855-37.942-307.856-326.49-461.146l-0.386-0.188c-94.004-37.156-226.82-68.198-370.659-101.819
				c-259.317-60.613-554.641-129.656-721.35-257.719c-162.569-124.894-202.453-306.775,34.601-593.693l0.295-0.354l0.198-0.441
				c113.949-245.067-53.682-383.325-298.561-489.199c-99.316-42.935-211.119-80.461-321.899-117.644
				c-203.797-68.394-404.234-135.667-515.124-232.547c-120.933-105.634-135.027-247.417,70.77-466.546
				c306.662-259.444,357.139-417.078,265.587-517.725c-114.868-126.264-454.685-160.436-790.795-194.232
				c-94.231-9.478-188.17-18.919-276.716-30.348v7.429c88.358,11.38,181.998,20.802,275.924,30.244
				c334.642,33.646,672.97,67.669,785.86,191.755c88.517,97.309,37.539,251.547-265.077,507.523l-0.312,0.292
				c-209.8,223.307-194.7,368.438-70.354,477.065c112.076,97.913,313.214,165.417,517.731,234.06
				c110.748,37.166,222.502,74.679,321.272,117.378c240.859,104.134,405.945,239.752,294.918,479.078
				c-240.297,291.061-199.053,476.144-33.072,603.661c168.011,129.076,464.218,198.313,724.314,259.109
				c143.427,33.529,275.856,64.491,369.396,101.433c285.256,151.599,364.214,304.317,321.918,454.575H3251.588z"/>
		</defs>
		<clipPath id="SVGID_00000063594225444914935380000006121661631683515794_">
			<use xlink:href="#SVGID_00000098193730492031174290000014969967333162778010_"  style="overflow:visible;"/>
		</clipPath>
		
			<linearGradient id="SVGID_00000116226185374746801490000015992956033931712178_" gradientUnits="userSpaceOnUse" x1="731.952" y1="8241.8438" x2="2601.366" y2="6253.8057">
			<stop  offset="0" style="stop-color:#0131B8"/>
			<stop  offset="1" style="stop-color:#39D4FF"/>
		</linearGradient>
		
			<rect x="1.059" y="5536.397" style="clip-path:url(#SVGID_00000063594225444914935380000006121661631683515794_);fill:url(#SVGID_00000116226185374746801490000015992956033931712178_);" width="3292.884" height="3463.603"/>
	</g>
	<g>
		<defs>
			<path id="SVGID_00000141448253648145193910000010461079966712427168_" d="M3225.341,9000
				c89.517-171.216,38.221-347.851-276.885-524.472l-0.409-0.201c-91.819-37.916-222.145-69.322-362.509-103.134
				c-239.2-57.631-507.65-122.304-662.798-238.009c-153.29-114.319-195.596-279.229,12.13-538.235l0.386-0.471l0.204-0.578
				c104.887-291.271-275.781-407.951-655.476-524.335c-234.054-71.741-467.757-143.375-585.313-255.356
				c-121.274-115.517-118.485-275.038,136.93-524.426c355.574-290.6,421.452-463.192,327.863-569.673
				c-117.517-133.722-487.842-160.641-849.763-186.937c-105.806-7.685-210.888-15.325-308.642-25.545v7.406
				c97.647,10.198,202.498,17.818,308.064,25.49c360.35,26.182,729.071,52.981,844.51,184.336
				c90.608,103.089,24.305,272.249-327.077,559.395l-0.25,0.23c-259.577,253.392-261.541,416.321-137.004,534.958
				c118.878,113.229,353.464,185.135,588.398,257.148c375.72,115.16,752.373,230.622,650.719,514.377
				c-210.778,263.103-167.063,431.166-10.338,548.043c156.378,116.631,425.669,181.501,665.603,239.311
				c139.917,33.708,269.823,65.004,361.178,102.692c312.162,175.053,361.724,349.405,271.889,517.984H3225.341z"/>
		</defs>
		<clipPath id="SVGID_00000067210835730413753700000005879005402812066207_">
			<use xlink:href="#SVGID_00000141448253648145193910000010461079966712427168_"  style="overflow:visible;"/>
		</clipPath>
		
			<linearGradient id="SVGID_00000016768899106601477800000016616924700894857887_" gradientUnits="userSpaceOnUse" x1="730.5727" y1="8240.5469" x2="2599.9888" y2="6252.5073">
			<stop  offset="0" style="stop-color:#0131B8"/>
			<stop  offset="1" style="stop-color:#39D4FF"/>
		</linearGradient>
		
			<rect x="1.059" y="5508.628" style="clip-path:url(#SVGID_00000067210835730413753700000005879005402812066207_);fill:url(#SVGID_00000016768899106601477800000016616924700894857887_);" width="3313.799" height="3491.372"/>
	</g>
	<g>
		<defs>
			<path id="SVGID_00000160186053069734191410000014666749769134231472_" d="M3183.052,9000
				c9.562-12.649,18.451-25.348,26.549-38.095c112.523-177.03,79.413-362.256-237.752-549.692l-0.426-0.211
				c-89.854-38.919-217.797-70.747-354.668-104.8c-218.563-54.374-459.991-114.442-603.534-217.528
				c-144.449-103.748-189.515-251.794-10.773-483.208l0.49-0.64l0.178-0.776c55.624-242.502-309.911-342.356-684.424-444.663
				c-266.587-72.815-537.771-146.904-662.58-273.934c-122.878-125.063-103.348-302.658,204.141-583.618
				c405.198-322.077,486.507-509.501,390.76-621.524c-120.329-140.777-521.676-159.754-909.303-178.083
				c-117.595-5.559-233.917-11.065-340.652-19.874v7.386c106.699,8.786,222.862,14.283,340.282,19.838
				c385.967,18.24,785.587,37.146,903.777,175.401c92.816,108.602,11.127,292.57-389.76,611.209l-0.201,0.175
				c-311.788,284.827-330.603,465.867-204.583,594.131c126.254,128.511,398.458,202.865,666.044,275.963
				c370.626,101.241,732.353,200.063,679.197,435.292c-181.573,235.489-135.03,386.61,12.857,492.819
				c144.771,103.985,386.938,164.232,606.174,218.778c136.472,33.945,264.041,65.679,353.178,104.241
				c312.175,184.547,345.188,366.204,235.067,539.475c-8.916,14.026-18.78,28.01-29.494,41.936H3183.052z"/>
		</defs>
		<clipPath id="SVGID_00000149351796683256585730000015106821339336464783_">
			<use xlink:href="#SVGID_00000160186053069734191410000014666749769134231472_"  style="overflow:visible;"/>
		</clipPath>
		
			<linearGradient id="SVGID_00000047044407622689249070000014554480171305352116_" gradientUnits="userSpaceOnUse" x1="726.1973" y1="8236.4277" x2="2595.6111" y2="6248.3896">
			<stop  offset="0" style="stop-color:#0131B8"/>
			<stop  offset="1" style="stop-color:#39D4FF"/>
		</linearGradient>
		
			<rect x="1.059" y="5483.355" style="clip-path:url(#SVGID_00000149351796683256585730000015106821339336464783_);fill:url(#SVGID_00000047044407622689249070000014554480171305352116_);" width="3321.066" height="3516.645"/>
	</g>
	<g>
		<defs>
			<path id="SVGID_00000037656112632875010030000004287960375742879126_" d="M3125.396,9000
				c32.322-32.968,60.325-66.361,82.955-100.144c117.56-175.55,91.738-361.116-213.125-550.956l-0.435-0.23
				c-87.923-40.104-213.745-72.49-347.256-106.854c-197.125-50.744-411.094-105.826-542.988-195.973
				c-136.345-93.195-184.735-224.518-34.51-428.88l0.643-0.876l0.062-1.029c12.253-198.011-337.668-280.989-705.48-368.204
				c-302.084-71.631-616.323-146.147-749.149-288.629c-125.118-134.218-88.621-330.061,272.973-643.485
				c455.234-353.698,552.021-555.819,454.026-673.113c-123.28-147.55-556.258-157.998-969.599-167.959
				c-129.494-3.124-257.054-6.201-372.454-13.422v7.367c115.413,7.205,242.879,10.279,372.272,13.393
				c411.604,9.928,842.766,20.321,963.839,165.241c95.121,113.849-2.052,312.525-453.036,662.895l-0.162,0.117
				c-365.847,317.123-401.714,516.403-273.544,653.898c134.387,144.15,449.806,218.95,753.022,290.847
				c364.009,86.322,710.321,168.456,699.694,359.632c-152.729,208.372-102.787,342.668,36.987,438.202
				c133.037,90.936,347.688,146.196,545.43,197.092c133.069,34.254,258.489,66.543,345.662,106.241
				c299.967,186.849,325.785,368.844,210.716,540.689c-23.533,35.13-52.919,69.861-87.037,104.141H3125.396z"/>
		</defs>
		<clipPath id="SVGID_00000126322964732592905360000016752112670134018975_">
			<use xlink:href="#SVGID_00000037656112632875010030000004287960375742879126_"  style="overflow:visible;"/>
		</clipPath>
		
			<linearGradient id="SVGID_00000005228089387693408280000009615968970173022625_" gradientUnits="userSpaceOnUse" x1="721.4351" y1="8231.9492" x2="2590.8496" y2="6243.9111">
			<stop  offset="0" style="stop-color:#0131B8"/>
			<stop  offset="1" style="stop-color:#39D4FF"/>
		</linearGradient>
		
			<rect x="1.059" y="5460.244" style="clip-path:url(#SVGID_00000126322964732592905360000016752112670134018975_);fill:url(#SVGID_00000005228089387693408280000009615968970173022625_);" width="3324.851" height="3539.756"/>
	</g>
	<g>
		<defs>
			<path id="SVGID_00000008139496610650720310000009764086056047055540_" d="M3052.736,9000
				c62.89-52.442,115.884-106.257,154.706-161.307c123.037-174.466,104.585-360.675-188.846-553.102l-0.435-0.25
				c-86.153-41.598-210.206-74.699-340.535-109.479c-174.368-46.52-360.048-96.069-480.033-172.689
				c-129.56-82.731-182.294-197.583-59.948-375.737l0.822-1.201l-0.221-1.403c-25.253-157.362-358.042-223.761-716.548-295.285
				c-340.964-68.023-705.327-140.725-847.033-299.356c-127.686-142.949-73.9-357.064,343.107-703.434
				c505.852-385.571,618.203-602.33,517.923-724.685c-126.352-154.147-591.657-155.495-1030.762-156.764
				c-141.456-0.402-280.184-0.805-403.873-6.299v7.36c123.748,5.474,262.453,5.88,403.877,6.283
				c437.305,1.266,900.702,2.614,1024.778,153.988c97.446,118.884-15.253,332.185-516.796,714.438l-0.123,0.088
				c-421.334,349.967-474.572,567.553-343.922,713.824c143.394,160.521,509.085,233.489,851.283,301.752
				c354.75,70.773,684.113,136.504,710.275,287.889c-124.43,182.092-70.03,299.762,62.945,384.678
				c120.998,77.277,307.279,126.975,482.221,173.654c129.852,34.646,253.453,67.627,338.915,108.845
				c288.554,189.307,307.074,371.944,186.612,542.754c-39.809,56.448-94.744,111.657-160.079,165.437H3052.736z"/>
		</defs>
		<clipPath id="SVGID_00000170243609044638801860000014178211341577571458_">
			<use xlink:href="#SVGID_00000008139496610650720310000009764086056047055540_"  style="overflow:visible;"/>
		</clipPath>
		
			<linearGradient id="SVGID_00000005266648514620472920000014981395986854620576_" gradientUnits="userSpaceOnUse" x1="717.3463" y1="8228.1104" x2="2586.7603" y2="6240.0723">
			<stop  offset="0" style="stop-color:#0131B8"/>
			<stop  offset="1" style="stop-color:#39D4FF"/>
		</linearGradient>
		
			<rect x="1.059" y="5439.01" style="clip-path:url(#SVGID_00000170243609044638801860000014178211341577571458_);fill:url(#SVGID_00000005266648514620472920000014981395986854620576_);" width="3329.42" height="3560.99"/>
	</g>
	<g>
		<defs>
			<path id="SVGID_00000052078530749996930990000010204728445655343009_" d="M2965.19,9000
				c100.251-70.848,184.609-144.829,241.538-221.518c129.008-173.787,118.069-360.978-164.745-556.2l-0.428-0.256
				c-84.79-43.588-207.57-77.588-334.944-112.868c-149.18-41.312-304.713-84.38-411.99-146.391
				c-125.465-72.54-184.774-171.42-89.351-324.912l1.029-1.663l-0.821-1.74c-56.617-120.478-369.792-170.92-715.155-226.547
				c-383.474-61.76-806.844-129.956-958.436-305.775c-130.439-151.277-58.987-383.705,414.555-763.354
				c556.852-417.594,684.846-648.905,582.248-776.123c-129.534-160.615-627.885-152.349-1092.83-144.625
				c-153.453,2.552-303.256,5.036-434.799,1.383v7.357c131.683,3.649,281.493,1.166,434.945-1.386
				c463.101-7.695,959.472-15.932,1086.665,141.78c99.8,123.741-28.513,351.568-580.982,765.86l-0.091,0.071
				c-477.942,383.179-548.901,619.096-415.575,773.737c153.423,177.943,578.251,246.369,963.04,308.34
				c341.613,55.023,651.518,104.958,708.619,220.635c-96.9,157.31-35.796,258.794,93.024,333.256
				c108.166,62.533,264.174,105.738,413.802,147.173c126.884,35.137,249.187,69.014,333.22,112.153
				c278.035,192.008,289.148,375.613,162.813,545.797c-58.036,78.17-144.917,153.611-248.249,225.813H2965.19z"/>
		</defs>
		<clipPath id="SVGID_00000132085266120486290460000008956701214901269173_">
			<use xlink:href="#SVGID_00000052078530749996930990000010204728445655343009_"  style="overflow:visible;"/>
		</clipPath>
		
			<linearGradient id="SVGID_00000090990233733568114070000005822224794128878264_" gradientUnits="userSpaceOnUse" x1="709.5176" y1="8220.7451" x2="2578.9326" y2="6232.7056">
			<stop  offset="0" style="stop-color:#0131B8"/>
			<stop  offset="1" style="stop-color:#39D4FF"/>
		</linearGradient>
		
			<rect x="1.059" y="5402.039" style="clip-path:url(#SVGID_00000132085266120486290460000008956701214901269173_);fill:url(#SVGID_00000090990233733568114070000005822224794128878264_);" width="3334.676" height="3597.961"/>
	</g>
	<g>
		<defs>
			<path id="SVGID_00000085212941153714761430000002297058960002224025_" d="M2862.627,9000
				c143.469-87.965,266.187-181.878,343.483-280.837c135.482-173.446,132.212-361.922-140.758-560.186l-0.406-0.26
				c-83.933-46.27-206.336-81.455-331.275-117.365c-118.245-33.987-238.794-68.64-330.558-113.809
				c-128.215-63.121-200.219-147.04-130.183-279.347l1.192-2.247l-1.744-1.87c-81.28-87.394-371.334-122.852-698.366-162.816
				c-429.623-52.507-923.339-112.852-1086.067-307.308c-133.274-159.264-43.793-410,487.228-823.205
				c608.109-449.705,751.792-695.463,646.859-827.403c-132.803-166.985-664.976-148.592-1155.876-131.621
				c-165.41,5.718-326.126,11.266-465.098,9.532v7.361c139.18,1.74,299.931-3.812,465.377-9.529
				c489.023-16.909,1019.154-35.231,1149.535,128.722c102.157,128.456-41.815,370.727-645.502,817.163l-0.088,0.052
				c-535.452,416.649-624.489,670.889-488.377,833.542c164.673,196.784,660.025,257.33,1091.07,310.009
				c323.227,39.507,610.138,74.585,691.866,158.605c-70.66,136.021,3.299,222.219,134.715,286.908
				c92.413,45.49,213.281,80.237,331.847,114.315c124.4,35.76,246.284,70.796,329.467,116.592
				c268.255,194.943,271.775,379.821,139.05,549.738C3121.5,8815.268,2995.538,8910.7,2848.426,9000H2862.627z"/>
		</defs>
		<clipPath id="SVGID_00000121260547513211780220000008306843458221377470_">
			<use xlink:href="#SVGID_00000085212941153714761430000002297058960002224025_"  style="overflow:visible;"/>
		</clipPath>
		
			<linearGradient id="SVGID_00000017491622155512852660000011175960446286170556_" gradientUnits="userSpaceOnUse" x1="699.6723" y1="8211.4912" x2="2569.0859" y2="6223.4541">
			<stop  offset="0" style="stop-color:#0131B8"/>
			<stop  offset="1" style="stop-color:#39D4FF"/>
		</linearGradient>
		
			<rect x="1.059" y="5356.364" style="clip-path:url(#SVGID_00000121260547513211780220000008306843458221377470_);fill:url(#SVGID_00000017491622155512852660000011175960446286170556_);" width="3340.533" height="3643.636"/>
	</g>
	<g>
		<defs>
			<path id="SVGID_00000030480154637268608100000005370287043275709580_" d="M2744.691,9000
				c191.469-103.498,360.409-217.135,460.711-339.214c142.527-173.459,147.157-363.535-116.686-565.112l-0.354-0.247
				c-84.088-50.121-207.713-86.887-331.09-123.566c-65.507-19.474-130.959-38.942-190.359-60.377
				c-159.345-57.507-274.411-129.056-226.262-253.103l1.094-2.828l-2.685-1.588c-98.569-58.452-360.743-80.241-662.418-105.322
				c-479.118-39.832-1058.213-87.965-1233.65-303.035c-136.157-166.911-28.302-435.936,560.894-882.854
				c659.645-481.919,819.059-742.081,711.788-878.608c-136.121-173.261-702.96-144.264-1219.922-117.813
				c-177.297,9.071-348.714,17.838-494.696,18.055v7.364c146.183-0.224,317.707-9,495.121-18.071
				c515.017-26.354,1079.72-55.25,1213.409,114.9c104.507,133.021-55.182,389.682-710.356,868.335l-0.058,0.042
				c-593.67,450.309-701.135,722.863-562.196,893.192c177.492,217.577,758.399,265.869,1239.029,305.821
				c298.048,24.779,557.381,46.345,656.411,102.731c-47.478,127.93,69.698,201.167,231.83,259.684
				c59.471,21.461,125.112,40.978,190.787,60.504c122.852,36.526,245.927,73.121,329.185,122.712
				c259.197,198.135,254.892,384.633,115.218,554.622c-101.673,123.754-274.739,238.989-470.358,343.775H2744.691z"/>
		</defs>
		<clipPath id="SVGID_00000131352996225262535620000008269781658217765296_">
			<use xlink:href="#SVGID_00000030480154637268608100000005370287043275709580_"  style="overflow:visible;"/>
		</clipPath>
		
			<linearGradient id="SVGID_00000016074221661758938510000006535097060636090758_" gradientUnits="userSpaceOnUse" x1="691.2365" y1="8203.5557" x2="2560.6494" y2="6215.5186">
			<stop  offset="0" style="stop-color:#0131B8"/>
			<stop  offset="1" style="stop-color:#39D4FF"/>
		</linearGradient>
		
			<rect x="1.059" y="5310.886" style="clip-path:url(#SVGID_00000131352996225262535620000008269781658217765296_);fill:url(#SVGID_00000016074221661758938510000006535097060636090758_);" width="3351.501" height="3689.114"/>
	</g>
	<g>
		<defs>
			<path id="SVGID_00000104688759512930956520000000958631696133002165_" d="M2610.648,9000
				c243.067-117.085,467.39-250.265,593.842-396.61c150.177-173.813,163.014-365.844-92.381-571.027l-0.308-0.217
				c-86.189-56.13-214.255-95.021-337.928-132.576c-196.716-59.748-382.201-116.079-365.48-231.408l0.445-3.052l-3.036-0.955
				c-107.355-33.955-335.272-43.919-602.112-55.559c-530.897-23.186-1216.302-53.111-1406.531-291.519
				c-139.066-174.284-12.523-461.579,635.456-942.342c711.366-514.215,886.553-788.701,776.948-929.692
				c-139.54-179.511-741.834-139.433-1284.962-103.28c-189.112,12.591-371.042,24.695-523.543,26.906v7.364
				c152.758-2.205,334.831-14.322,524.092-26.916c541.16-36.023,1141.272-75.955,1278.316,100.332
				c106.871,137.481-68.582,408.471-775.467,919.43l-0.032,0.022c-652.483,484.102-778.675,774.941-636.859,952.664
				c192.375,241.106,879.803,271.125,1412.252,294.369c263.794,11.513,489.442,21.38,597.093,54.319
				c-13.971,119.355,172.949,176.151,371.133,236.336c123.053,37.371,250.492,76.079,335.736,131.524
				c250.94,201.671,238.557,390.127,91.3,560.557c-128.046,148.199-357.555,283.054-605.093,401.331H2610.648z"/>
		</defs>
		<clipPath id="SVGID_00000003088779091583470390000015736738609959156663_">
			<use xlink:href="#SVGID_00000104688759512930956520000000958631696133002165_"  style="overflow:visible;"/>
		</clipPath>
		
			<linearGradient id="SVGID_00000170995113466375977210000018404480752643798404_" gradientUnits="userSpaceOnUse" x1="683.886" y1="8196.6416" x2="2553.3013" y2="6208.6025">
			<stop  offset="0" style="stop-color:#0131B8"/>
			<stop  offset="1" style="stop-color:#39D4FF"/>
		</linearGradient>
		
			<rect x="1.059" y="5265.532" style="clip-path:url(#SVGID_00000003088779091583470390000015736738609959156663_);fill:url(#SVGID_00000170995113466375977210000018404480752643798404_);" width="3366.446" height="3734.468"/>
	</g>
	<g>
		<defs>
			<path id="SVGID_00000049220529184786974250000009476443803117622917_" d="M2459.345,9000
				c296.635-128.248,587.378-280.833,743.827-453.056c158.501-174.466,179.872-368.759-67.689-577.881l-0.247-0.178
				c-92.832-66.913-233.362-108.647-361.565-146.732c-145.04-43.075-274.184-81.436-297.924-145.16l-0.783-2.094l-2.279-0.305
				c-105.592-14.468-290.301-15.072-509.036-15.786c-581.846-1.906-1405.002-4.607-1613.084-270.457
				c-141.969-181.394,3.546-486.936,710.772-1001.631c763.285-546.563,954.284-835.328,842.341-980.696
				c-143.014-185.716-781.643-134.072-1351.024-88.033c-200.826,16.247-393.016,31.783-551.595,35.981v7.36
				c158.832-4.191,351.23-19.74,552.254-36c567.384-45.89,1203.753-97.342,1344.238,85.082
				c109.222,141.836-82.027,427.094-840.789,970.411c-711.778,518.004-856.965,827.11-712.288,1011.972
				c210.343,268.746,1035.729,271.454,1619.143,273.356c216.947,0.721,400.367,1.318,505.78,15.419
				c26.968,65.9,156.612,104.423,302.051,147.621c127.501,37.867,267.272,79.387,359.048,145.456
				c243.268,205.521,222.434,396.263,66.936,567.437C3039.1,8716.374,2741.86,8870.723,2440.653,9000H2459.345z"/>
		</defs>
		<clipPath id="SVGID_00000065764233557519735500000014478998290878621858_">
			<use xlink:href="#SVGID_00000049220529184786974250000009476443803117622917_"  style="overflow:visible;"/>
		</clipPath>
		
			<linearGradient id="SVGID_00000110455071822507345760000002817945336382634938_" gradientUnits="userSpaceOnUse" x1="676.7247" y1="8189.9082" x2="2546.1377" y2="6201.8711">
			<stop  offset="0" style="stop-color:#0131B8"/>
			<stop  offset="1" style="stop-color:#39D4FF"/>
		</linearGradient>
		
			<rect x="1.059" y="5220.307" style="clip-path:url(#SVGID_00000065764233557519735500000014478998290878621858_);fill:url(#SVGID_00000110455071822507345760000002817945336382634938_);" width="3381.985" height="3779.693"/>
	</g>
	<g>
		<defs>
			<path id="SVGID_00000060740033549299715540000004874356277410120851_" d="M2289.155,9000
				c349.717-136.238,720.83-308.158,912.153-508.491c167.531-175.427,197.859-372.337-42.461-585.745l-0.14-0.104
				c-114.835-93.153-297.077-136.17-441.653-170.284c-72.806-17.182-136.021-32.104-175.764-49.913l-0.753-0.347h-0.812
				c-88.384-0.987-216.774,4.062-368.344,10.032c-622.58,24.513-1637.101,64.458-1868.054-235.697
				c-144.878-188.284,19.86-512.063,786.734-1060.752c815.351-578.959,1022.183-881.961,907.916-1031.599
				c-146.55-191.92-822.37-128.264-1418.099-72.13c-212.411,20.003-414.623,39.049-578.82,45.225v7.37
				c164.427-6.172,366.889-25.237,579.566-45.28c593.716-55.932,1267.237-119.384,1411.216,69.173
				c111.579,146.108-95.507,445.598-906.313,1021.336c-771.441,551.933-935.878,879.29-788.328,1071.047
				c233.356,303.279,1250.396,263.236,1874.509,238.658c151.031-5.948,279.025-10.984,367.123-10.033
				c40.513,17.987,103.706,32.906,176.404,50.062c143.767,33.929,324.97,76.702,438.435,168.647
				c236.187,209.739,206.499,403.117,42.026,575.339c-193.573,202.689-572.917,376.486-926.933,513.484H2289.155z"/>
		</defs>
		<clipPath id="SVGID_00000056390905317042400960000008495430154496095131_">
			<use xlink:href="#SVGID_00000060740033549299715540000004874356277410120851_"  style="overflow:visible;"/>
		</clipPath>
		
			<linearGradient id="SVGID_00000099662525303916037510000012659958950963798412_" gradientUnits="userSpaceOnUse" x1="669.7413" y1="8183.3447" x2="2539.1545" y2="6195.3071">
			<stop  offset="0" style="stop-color:#0131B8"/>
			<stop  offset="1" style="stop-color:#39D4FF"/>
		</linearGradient>
		
			<rect x="1.059" y="5175.18" style="clip-path:url(#SVGID_00000056390905317042400960000008495430154496095131_);fill:url(#SVGID_00000099662525303916037510000012659958950963798412_);" width="3398.108" height="3824.82"/>
	</g>
	<g>
		<defs>
			<path id="SVGID_00000005951629383888122980000002898228303806067848_" d="M2097.641,9000
				c398.055-139.849,868.458-331.188,1101.083-562.914c177.349-176.663,217.132-376.535-16.503-594.621
				c-66.186-61.776-150.04-100.9-239.934-123.79c-109.871-27.978-228.778-31.715-335.396-22.98
				c-42.344,3.467-92.131,7.857-147.657,12.75c-614.924,54.26-1939.087,171.083-2203.713-178.066
				c-147.771-194.979,36.413-536.969,863.263-1119.691c867.556-611.411,1090.281-928.608,973.683-1082.444
				c-150.151-198.122-864.068-121.965-1486.236-55.598c-223.901,23.883-435.9,46.491-605.174,54.614v7.357
				c169.631-8.117,381.86-30.747,606.015-54.663c620.122-66.157,1331.68-142.057,1479.229,52.617
				c113.92,150.306-109.033,463.981-972.005,1072.165C282.87,6990.685,98.946,7336.266,249.353,7534.709
				c267.187,352.529,1594.305,235.44,2210.602,181.063c55.231-4.873,104.744-9.234,147.599-12.744
				c105.874-8.669,223.882-4.974,332.795,22.76c88.692,22.584,171.388,61.13,236.551,121.965
				c229.593,214.31,190.553,410.672,16.341,584.206c-235.427,234.512-716.564,427.873-1117.97,568.04H2097.641z"/>
		</defs>
		<clipPath id="SVGID_00000132809793298318165310000016033901299377916081_">
			<use xlink:href="#SVGID_00000005951629383888122980000002898228303806067848_"  style="overflow:visible;"/>
		</clipPath>
		
			<linearGradient id="SVGID_00000101074896495734335090000003682661242970011786_" gradientUnits="userSpaceOnUse" x1="662.9282" y1="8176.9341" x2="2532.3416" y2="6188.897">
			<stop  offset="0" style="stop-color:#0131B8"/>
			<stop  offset="1" style="stop-color:#39D4FF"/>
		</linearGradient>
		
			<rect x="1.059" y="5130.122" style="clip-path:url(#SVGID_00000132809793298318165310000016033901299377916081_);fill:url(#SVGID_00000101074896495734335090000003682661242970011786_);" width="3414.797" height="3869.878"/>
	</g>
	<g>
		<defs>
			<path id="SVGID_00000038382519819445745080000005940401340855232170_" d="M2143.219,2.561
				c353.779,76.533,712.723,181.995,920.696,363.743c263.09,229.917,284.142,582.959-254.72,1156.315
				c-635.904,676.622-699.168,1019.171-505.507,1188.412c213.255,186.359,738.298,160.625,1151.909,140.345l32.809-1.611
				c159.586-7.76,340.688,19.961,511.508,81.442v-7.857c-171.037-61.163-352.172-88.702-511.9-80.923l-32.805,1.604
				c-412.218,20.201-935.504,45.851-1146.412-138.462c-190.394-166.385-125.975-505.517,506.063-1178.022
				c542.725-577.472,520.511-933.936,254.171-1166.698C2866.225,183.621,2521.631,78.724,2177.609,2.561H2143.219z"/>
		</defs>
		<clipPath id="SVGID_00000158710636512223900270000000098141496130063237_">
			<use xlink:href="#SVGID_00000038382519819445745080000005940401340855232170_"  style="overflow:visible;"/>
		</clipPath>
		
			<linearGradient id="SVGID_00000156582993634258652050000017324038783762112444_" gradientUnits="userSpaceOnUse" x1="3507.8259" y1="985.2921" x2="1638.4141" y2="2973.3279">
			<stop  offset="0" style="stop-color:#0131B8"/>
			<stop  offset="1" style="stop-color:#39D4FF"/>
		</linearGradient>
		
			<rect x="2110.027" y="2.561" style="clip-path:url(#SVGID_00000158710636512223900270000000098141496130063237_);fill:url(#SVGID_00000156582993634258652050000017324038783762112444_);" width="1889.885" height="2928.647"/>
	</g>
	<g>
		<defs>
			<path id="SVGID_00000152236122522694653750000013863716778250205344_" d="M1792.138,2.561
				c419.971,80.423,922.416,184.125,1182.246,409.698c252.807,219.469,275.583,555.355-232.729,1099.801l-0.029,0.026
				c-575.479,629.135-605.135,950.735-407.205,1119.093c191.073,162.508,594.271,180.859,922.365,195.781
				c71.919,3.266,140.219,6.383,202.057,10.825c124.206,30.682,333.373,82.799,541.069,169.274v-8.02
				c-207.414-86.014-415.731-137.897-539.514-168.469l-0.666-0.104c-61.686-4.442-130.316-7.565-202.576-10.851
				c-326.912-14.87-728.642-33.15-917.686-193.943c-194.67-165.579-163.764-483.777,407.844-1108.691
				c512.176-548.589,488.254-887.877,232.18-1110.178C2725.86,186.608,2244.1,82.204,1831.191,2.561H1792.138z"/>
		</defs>
		<clipPath id="SVGID_00000167364403523672004640000002700711739282577808_">
			<use xlink:href="#SVGID_00000152236122522694653750000013863716778250205344_"  style="overflow:visible;"/>
		</clipPath>
		
			<linearGradient id="SVGID_00000021120662812309189420000007698615626348399527_" gradientUnits="userSpaceOnUse" x1="3442.3987" y1="923.7665" x2="1572.9875" y2="2911.8015">
			<stop  offset="0" style="stop-color:#0131B8"/>
			<stop  offset="1" style="stop-color:#39D4FF"/>
		</linearGradient>
		
			<rect x="1792.138" y="2.561" style="clip-path:url(#SVGID_00000167364403523672004640000002700711739282577808_);fill:url(#SVGID_00000021120662812309189420000007698615626348399527_);" width="2207.774" height="3004.498"/>
	</g>
	<g>
		<defs>
			<path id="SVGID_00000137128760929160280400000013679114606035347330_" d="M1442.736,2.561
				c78.741,17.253,166.339,34.254,258.905,52.228c412.244,80.014,923.027,179.157,1183.246,403.412
				c242.538,209.015,267.044,527.738-210.781,1043.307l-0.049,0.052c-515.52,581.31-514.53,881.968-312.707,1048.391
				c171.355,141.306,487.51,184.859,754.516,221.632c120.173,16.552,230.365,31.734,312.675,53.825
				c49.039,57.221,187.463,109.592,353.753,172.488c69.195,26.182,143.245,54.195,217.619,85.111v-8.013
				c-73.458-30.455-146.511-58.098-214.849-83.949c-166.157-62.851-304.337-115.131-351.389-171.19l-0.773-0.916l-1.179-0.325
				c-82.764-22.351-193.729-37.637-314.785-54.306c-265.999-36.63-580.95-80.02-750.613-219.93
				c-198.55-163.729-198.167-461.036,313.519-1038.028c481.614-519.692,455.935-841.805,210.128-1053.632
				C2628.184,227.115,2116.29,127.757,1703.151,47.568c-79.64-15.461-155.602-30.215-225.365-45.007H1442.736z"/>
		</defs>
		<clipPath id="SVGID_00000106826475078815054060000006582472953981000608_">
			<use xlink:href="#SVGID_00000137128760929160280400000013679114606035347330_"  style="overflow:visible;"/>
		</clipPath>
		
			<linearGradient id="SVGID_00000022547551068737246640000013646838035720038584_" gradientUnits="userSpaceOnUse" x1="3368.6306" y1="854.4028" x2="1499.2181" y2="2842.4395">
			<stop  offset="0" style="stop-color:#0131B8"/>
			<stop  offset="1" style="stop-color:#39D4FF"/>
		</linearGradient>
		
			<rect x="1442.736" y="2.561" style="clip-path:url(#SVGID_00000106826475078815054060000006582472953981000608_);fill:url(#SVGID_00000022547551068737246640000013646838035720038584_);" width="2557.177" height="3080.447"/>
	</g>
	<g>
		<defs>
			<path id="SVGID_00000183944481089718117000000013940452733927360172_" d="M1190.88,2.561
				c15.776,5.981,31.942,11.942,48.624,17.857l0.143,0.052c110.183,34.507,261.947,64.526,430.104,97.793
				c393.558,77.838,877.182,173.508,1125.623,385.847c232.301,198.541,258.557,500.108-188.823,986.826l-0.084,0.097
				c-456.309,533.297-427.903,813.013-222.664,976.3c154.923,123.267,410.64,179.469,634.093,228.573
				c159.855,35.124,303.135,66.624,380.201,116.241c-3.601,117.988,207.726,195.612,455.108,286.45
				c47.981,17.617,97.325,35.74,146.709,54.741v-7.909c-48.488-18.63-96.904-36.409-144.011-53.702
				c-246.06-90.365-456.069-167.489-450.134-281.353l0.101-2.052l-1.773-1.162c-77.802-51.02-222.709-82.864-384.503-118.417
				c-222.619-48.922-477.367-104.91-630.93-227.086c-201.904-160.651-228.836-437.029,223.625-965.845
				c451.195-490.887,423.753-795.857,188.161-997.222c-249.947-213.625-734.697-309.509-1129.158-387.529
				c-167.911-33.215-319.447-63.189-429.289-97.598c-10.205-3.623-20.176-7.253-30.033-10.903H1190.88z"/>
		</defs>
		<clipPath id="SVGID_00000089560158190567931160000015353156465069776021_">
			<use xlink:href="#SVGID_00000183944481089718117000000013940452733927360172_"  style="overflow:visible;"/>
		</clipPath>
		
			<linearGradient id="SVGID_00000132050478593789830980000004938227932277958828_" gradientUnits="userSpaceOnUse" x1="3319.3481" y1="808.0598" x2="1449.9362" y2="2796.0957">
			<stop  offset="0" style="stop-color:#0131B8"/>
			<stop  offset="1" style="stop-color:#39D4FF"/>
		</linearGradient>
		
			<rect x="1190.88" y="2.561" style="clip-path:url(#SVGID_00000089560158190567931160000015353156465069776021_);fill:url(#SVGID_00000132050478593789830980000004938227932277958828_);" width="2809.032" height="3150.779"/>
	</g>
	<g>
		<defs>
			<path id="SVGID_00000154416566301861700920000006546429405705712536_" d="M1030.489,2.561
				c53.698,27.604,115.348,54.682,185.644,81.195l0.175,0.065c107.874,34.715,256.84,64.773,421.546,98.014
				c374.802,75.624,831.36,167.742,1068.022,368.133c222.102,188.066,250.132,472.491-166.872,930.423l-0.123,0.149
				c-398.289,485.342-345.866,744.09-137.771,902.877c141.819,108.215,355.925,169.469,548.508,224.554
				c195.401,55.91,368.506,105.43,419.309,190.508c-53.838,117.189,40.448,196.255,197.55,264.989
				c85.965,37.611,190.998,72.221,300.729,108.365c43.793,14.422,88.335,29.098,132.706,44.312v-7.799
				c-43.572-14.916-87.273-29.305-130.254-43.468c-109.429-36.046-214.184-70.565-300.019-108.118
				c-153.777-67.286-246.064-144.125-192.956-256.996l0.792-1.695l-0.925-1.61c-51.137-88.657-226.593-138.845-424.76-195.534
				c-191.907-54.903-405.279-115.949-545.959-223.294c-204.709-156.203-255.531-411.659,138.933-892.403
				c420.802-462.101,391.571-749.922,166.154-940.793c-238.164-201.664-695.804-294.015-1071.496-369.815
				c-164.459-33.182-313.204-63.195-420.62-97.761c-64.465-24.318-121.55-49.091-171.865-74.299H1030.489z"/>
		</defs>
		<clipPath id="SVGID_00000172414814772525901710000016603920512633114026_">
			<use xlink:href="#SVGID_00000154416566301861700920000006546429405705712536_"  style="overflow:visible;"/>
		</clipPath>
		
			<linearGradient id="SVGID_00000067220600306591303240000011839589586862010807_" gradientUnits="userSpaceOnUse" x1="3292.4597" y1="782.7729" x2="1423.0492" y2="2770.8074">
			<stop  offset="0" style="stop-color:#0131B8"/>
			<stop  offset="1" style="stop-color:#39D4FF"/>
		</linearGradient>
		
			<rect x="1030.489" y="2.561" style="clip-path:url(#SVGID_00000172414814772525901710000016603920512633114026_);fill:url(#SVGID_00000067220600306591303240000011839589586862010807_);" width="2969.423" height="3213.584"/>
	</g>
	<g>
		<defs>
			<path id="SVGID_00000111904631497884953710000004074013376861147801_" d="M914.592,2.561
				c69.66,49.448,161.206,97.683,278.158,144.527l0.231,0.084c105.549,34.955,251.729,65.085,412.977,98.306
				c355.948,73.358,785.503,161.871,1010.414,350.314c211.946,177.566,241.797,444.854-144.917,874.046l-0.159,0.201
				c-342.016,437.932-268.967,675.687-58.559,828.487c131.738,95.67,317.282,157.631,488.16,214.69
				c229.599,76.683,432.552,144.469,439.663,272.041c-85.455,120.546-50.319,204.995,50.75,272.048
				c104.998,69.656,281.642,120.124,467.364,173.196c46.841,13.383,94.26,26.935,141.238,40.994v-7.708
				c-46.276-13.831-92.952-27.169-139.069-40.338c-185.118-52.896-361.191-103.202-465.212-172.209
				c-97.523-64.708-131.231-146.268-48.026-262.879l0.714-1.006l-0.055-1.253c-6.13-133.313-211.953-202.053-444.883-279.84
				c-170.339-56.884-355.292-118.65-486.046-213.606c-206.982-150.313-278.333-384.847,59.949-818.052
				c390.435-433.361,359.373-704.025,144.098-884.377C2394.971,400.531,1964.36,311.803,1607.549,238.27
				c-160.988-33.169-306.934-63.247-411.958-98.02C1083.912,95.51,995.658,49.568,927.69,2.561H914.592z"/>
		</defs>
		<clipPath id="SVGID_00000045601908500847714500000008964854246608338355_">
			<use xlink:href="#SVGID_00000111904631497884953710000004074013376861147801_"  style="overflow:visible;"/>
		</clipPath>
		
			<linearGradient id="SVGID_00000058549318709774438310000007259541925915802756_" gradientUnits="userSpaceOnUse" x1="3275.5166" y1="766.841" x2="1406.1044" y2="2754.8774">
			<stop  offset="0" style="stop-color:#0131B8"/>
			<stop  offset="1" style="stop-color:#39D4FF"/>
		</linearGradient>
		
			<rect x="914.592" y="2.561" style="clip-path:url(#SVGID_00000045601908500847714500000008964854246608338355_);fill:url(#SVGID_00000058549318709774438310000007259541925915802756_);" width="3085.32" height="3268.935"/>
	</g>
	<g>
		<defs>
			<path id="SVGID_00000126309896401562321230000015053749849997670043_" d="M833.043,2.561
				c69.114,71.163,178.053,140.599,336.344,207.846l0.26,0.104c103.141,35.234,246.599,65.462,404.419,98.715
				c336.97,71.007,739.581,155.845,952.79,332.314c201.859,167.066,233.554,417.231-122.939,817.747l-0.221,0.273
				c-288.197,391.73-197.521,608.537,14.877,753.837c124.215,84.962,290.077,145.196,445.831,201.761
				c264.038,95.877,498.819,181.144,447.825,357.438c-124.371,142.923-111.29,240.528-20.539,314.133
				c107.021,86.799,322.931,139.17,547.531,193.644c53.526,12.987,107.553,26.091,160.693,39.806v-7.611
				c-52.552-13.545-105.936-26.494-158.839-39.325c-223.726-54.26-438.802-106.429-544.482-192.138
				c-87.315-70.825-99.329-165.3,22.023-304.431l0.523-0.604l0.23-0.76c53.757-183.261-184.404-269.755-452.29-367.029
				c-155.277-56.377-320.635-116.43-444.081-200.878c-208.901-142.904-297.759-356.568-13.169-743.467
				c360.123-404.653,327.171-658.155,121.998-827.981c-214.674-177.67-618.307-262.723-956.131-333.912
				c-157.517-33.189-300.7-63.364-403.458-98.455C1018.798,138.393,912.261,71.243,843.777,2.561H833.043z"/>
		</defs>
		<clipPath id="SVGID_00000157301705048677359690000008495390948013272743_">
			<use xlink:href="#SVGID_00000126309896401562321230000015053749849997670043_"  style="overflow:visible;"/>
		</clipPath>
		
			<linearGradient id="SVGID_00000169541051302767700790000014505542700395773074_" gradientUnits="userSpaceOnUse" x1="3266.0242" y1="757.915" x2="1396.6135" y2="2745.9495">
			<stop  offset="0" style="stop-color:#0131B8"/>
			<stop  offset="1" style="stop-color:#39D4FF"/>
		</linearGradient>
		
			<rect x="833.043" y="2.561" style="clip-path:url(#SVGID_00000157301705048677359690000008495390948013272743_);fill:url(#SVGID_00000169541051302767700790000014505542700395773074_);" width="3166.87" height="3317.618"/>
	</g>
	<g>
		<defs>
			<path id="SVGID_00000154408688945465232990000003415309278890662286_" d="M779.413,2.561
				c55.543,92.54,171.167,183.248,366.591,271.178l0.308,0.13c100.855,35.598,241.57,65.955,395.88,99.247
				c317.856,68.579,693.603,149.644,895.124,314.087c191.846,156.56,225.463,389.613-100.952,761.545l-0.276,0.357
				c-237.635,347.672-131.465,543.706,83.153,680.109c118.754,75.475,270.645,132.462,415.624,186.839
				c96.553,36.228,190.047,71.306,268.375,109.832c165.031,81.163,262.996,177.917,180.55,334.347
				c-166.985,169.858-170.943,282.19-82.582,363.048c108.485,99.26,357.201,149.54,612.664,201.177
				c62.267,12.578,124.936,25.254,186.041,38.721v-7.552c-60.627-13.344-122.748-25.903-184.472-38.377
				c-254.392-51.416-502.082-101.488-608.982-199.3c-85.046-77.825-80.26-186.904,83.257-353.068l0.38-0.389l0.25-0.48
				c85.663-161.937-14.5-261.489-183.648-344.678c-78.721-38.715-172.358-73.845-269.067-110.131
				c-144.634-54.26-296.171-111.105-414.205-186.118c-210.995-134.105-315.236-327.067-81.114-669.739
				c329.993-376.088,295.129-612.466,99.936-771.74c-202.985-165.644-579.716-246.924-898.4-315.684
				c-154.001-33.221-294.431-63.52-394.805-98.929C958.018,181.017,844.183,92.594,788.63,2.561H779.413z"/>
		</defs>
		<clipPath id="SVGID_00000018214282499449647600000014245689663713589176_">
			<use xlink:href="#SVGID_00000154408688945465232990000003415309278890662286_"  style="overflow:visible;"/>
		</clipPath>
		
			<linearGradient id="SVGID_00000156554484327900238700000017966722129343489970_" gradientUnits="userSpaceOnUse" x1="3262.5205" y1="754.6243" x2="1393.109" y2="2742.6599">
			<stop  offset="0" style="stop-color:#0131B8"/>
			<stop  offset="1" style="stop-color:#39D4FF"/>
		</linearGradient>
		
			<rect x="779.413" y="2.561" style="clip-path:url(#SVGID_00000018214282499449647600000014245689663713589176_);fill:url(#SVGID_00000156554484327900238700000017966722129343489970_);" width="3220.5" height="3360.618"/>
	</g>
	<g>
		<defs>
			<path id="SVGID_00000118380531524919097630000002001902779561238660_" d="M749.422,2.561
				c31.357,113.378,144.066,225.437,373.201,334.503l0.347,0.149c98.517,36.007,236.551,66.546,387.39,99.916
				c298.567,66.046,647.483,143.241,837.38,295.652c181.924,146.014,217.512,361.97-78.942,705.428l-0.344,0.461
				c-191.2,307.061-69.975,482.777,148.319,609.167c114.296,66.182,255.229,118.702,391.643,169.527
				c142.686,53.169,280.431,104.488,377.048,167.566c132.485,86.488,187.287,195.501,69.777,363.1
				c-212.008,198.781-231.729,326.217-143.189,414.075c110.274,109.41,389.766,155.54,673.174,202.307
				c72.238,11.916,144.719,23.883,214.687,36.935v-7.487c-69.592-12.968-141.621-24.851-213.398-36.695
				c-282.171-46.559-560.439-92.488-668.989-200.183c-85.338-84.683-64.935-208.788,143.333-403.958l0.279-0.266l0.217-0.305
				c121.073-172.449,64.715-284.625-71.604-373.613c-97.283-63.507-235.459-114.994-378.597-168.326
				c-136.085-50.708-276.681-103.105-390.461-168.975c-214.56-124.228-333.714-296.97-145.835-598.875
				c299.918-347.574,263.035-566.823,77.754-715.532c-191.291-153.527-541.163-230.937-840.565-297.171
				c-150.433-33.286-288.109-63.734-386.169-99.553C900.699,223.199,789.387,113.412,757.731,2.561H749.422z"/>
		</defs>
		<clipPath id="SVGID_00000168080965067172959860000003598174792794297247_">
			<use xlink:href="#SVGID_00000118380531524919097630000002001902779561238660_"  style="overflow:visible;"/>
		</clipPath>
		
			<linearGradient id="SVGID_00000041998772813058534950000009075826870268030637_" gradientUnits="userSpaceOnUse" x1="3264.0862" y1="756.0972" x2="1394.6742" y2="2744.1331">
			<stop  offset="0" style="stop-color:#0131B8"/>
			<stop  offset="1" style="stop-color:#39D4FF"/>
		</linearGradient>
		
			<rect x="749.422" y="2.561" style="clip-path:url(#SVGID_00000168080965067172959860000003598174792794297247_);fill:url(#SVGID_00000041998772813058534950000009075826870268030637_);" width="3250.49" height="3398.787"/>
	</g>
	<g>
		<defs>
			<path id="SVGID_00000158734862790070713240000007608920532312817578_" d="M740.146,2.561
				c-1.714,133.527,99.082,267.015,359.113,397.828l0.36,0.169c96.26,36.533,231.635,67.299,378.961,100.773
				c279.083,63.403,601.219,136.605,779.49,276.879c172.144,135.456,209.813,334.353-56.841,649.453l-0.416,0.597
				c-149.699,271.729-10.624,428.016,215.528,543.868c109.17,55.929,238.768,102.391,365.782,147.917
				c174.427,62.533,343.973,123.313,448.422,204.378c123.316,95.715,155.508,220.398-3.922,411.516
				c-258.71,228.761-293.84,371.334-204.041,465.79c112.429,118.248,422.078,158.891,732.142,199.579
				c82.975,10.896,165.972,21.786,245.187,34.163v-7.455c-78.939-12.312-161.573-23.156-244.184-34
				c-308.688-40.507-616.966-80.962-727.535-197.268c-86.679-91.176-50.961-230.378,203.843-455.627l0.383-0.39
				c163.239-195.573,129.829-323.542,2.922-422.036c-105.387-81.793-275.538-142.793-450.572-205.547
				c-126.693-45.416-255.953-91.76-364.844-147.534c-222.274-113.865-359.071-267.301-212.508-533.615
				c270.002-319.223,231.012-521.374,55.478-659.499c-179.644-141.358-502.686-214.761-782.565-278.346
				c-146.962-33.396-282.002-64.085-377.76-100.404C846.179,264.725,746.64,133.523,748.065,2.561H740.146z"/>
		</defs>
		<clipPath id="SVGID_00000121275739717540191740000010040066181639609984_">
			<use xlink:href="#SVGID_00000158734862790070713240000007608920532312817578_"  style="overflow:visible;"/>
		</clipPath>
		
			<linearGradient id="SVGID_00000129207513949122644740000011077663550205168777_" gradientUnits="userSpaceOnUse" x1="3269.6858" y1="761.3601" x2="1400.2736" y2="2749.3962">
			<stop  offset="0" style="stop-color:#0131B8"/>
			<stop  offset="1" style="stop-color:#39D4FF"/>
		</linearGradient>
		
			<rect x="738.432" y="2.561" style="clip-path:url(#SVGID_00000121275739717540191740000010040066181639609984_);fill:url(#SVGID_00000129207513949122644740000011077663550205168777_);" width="3261.481" height="3432.911"/>
	</g>
	<g>
		<defs>
			<path id="SVGID_00000088121968492259481900000014570561712265744313_" d="M749.38,2.561
				c-42.351,152.852,37.948,307.86,326.496,461.147l0.383,0.195c94.004,37.15,226.817,68.189,370.662,101.819
				c259.314,60.611,554.641,129.65,721.35,257.71c162.569,124.904,202.449,306.782-34.604,593.7l-0.292,0.357l-0.201,0.435
				c-113.952,245.073,53.685,383.328,298.564,489.205c99.316,42.929,211.112,80.455,321.896,117.637
				c203.8,68.397,404.237,135.67,515.121,232.547c120.936,105.637,135.034,247.424-70.767,466.549
				c-306.658,259.444-357.133,417.075-265.583,517.725c114.868,126.267,454.679,160.43,790.795,194.235
				c94.228,9.468,188.17,18.916,276.713,30.338v-7.422c-88.355-11.383-181.995-20.799-275.927-30.247
				c-334.639-33.643-672.967-67.669-785.857-191.755c-88.514-97.306-37.536-251.547,265.077-507.523l0.312-0.286
				c209.8-223.307,194.699-368.438,70.351-477.075c-112.076-97.903-313.213-165.417-517.728-234.054
				c-110.744-37.169-222.502-74.676-321.272-117.378c-240.859-104.137-405.945-239.755-294.918-479.075
				c240.297-291.067,199.057-476.153,33.075-603.661c-168.008-129.079-464.218-198.32-724.318-259.119
				c-143.426-33.52-275.856-64.481-369.399-101.423C794.052,305.537,715.1,152.822,757.393,2.561H749.38z"/>
		</defs>
		<clipPath id="SVGID_00000012470134228998679710000006839926541877684363_">
			<use xlink:href="#SVGID_00000088121968492259481900000014570561712265744313_"  style="overflow:visible;"/>
		</clipPath>
		
			<linearGradient id="SVGID_00000052812908345324081880000000464160397265309623_" gradientUnits="userSpaceOnUse" x1="3269.009" y1="760.7263" x2="1399.5992" y2="2748.76">
			<stop  offset="0" style="stop-color:#0131B8"/>
			<stop  offset="1" style="stop-color:#39D4FF"/>
		</linearGradient>
		
			<rect x="707.029" y="2.561" style="clip-path:url(#SVGID_00000012470134228998679710000006839926541877684363_);fill:url(#SVGID_00000052812908345324081880000000464160397265309623_);" width="3292.884" height="3463.599"/>
	</g>
	<g>
		<defs>
			<path id="SVGID_00000011001474544043916140000000983194010355616138_" d="M775.63,2.561
				c-89.517,171.216-38.221,347.853,276.885,524.472l0.409,0.208c91.819,37.909,222.145,69.319,362.516,103.131
				c239.193,57.63,507.647,122.3,662.794,238.008c153.287,114.313,195.593,279.23-12.136,538.232l-0.38,0.468l-0.205,0.584
				c-104.891,291.269,275.775,407.951,655.473,524.329c234.054,71.747,467.76,143.384,585.316,255.359
				c121.267,115.521,118.481,275.041-136.93,524.426c-355.581,290.6-421.455,463.192-327.863,569.68
				c117.511,133.722,487.838,160.638,849.76,186.93c105.806,7.688,210.888,15.325,308.642,25.546v-7.409
				c-97.647-10.188-202.499-17.818-308.067-25.487c-360.35-26.182-729.068-52.981-844.51-184.333
				c-90.605-103.092-24.299-272.249,327.08-559.394l0.247-0.234c259.583-253.392,261.544-416.322,137.004-534.959
				c-118.874-113.222-353.461-185.138-588.391-257.145c-375.724-115.157-752.373-230.625-650.723-514.381
				c210.778-263.106,167.06-431.166,10.341-548.037c-156.381-116.637-425.669-181.508-665.606-239.314
				c-139.917-33.708-269.823-65.007-361.172-102.696C743.951,345.492,694.389,171.14,784.224,2.561H775.63z"/>
		</defs>
		<clipPath id="SVGID_00000176010061636905204760000012358923516941008780_">
			<use xlink:href="#SVGID_00000011001474544043916140000000983194010355616138_"  style="overflow:visible;"/>
		</clipPath>
		
			<linearGradient id="SVGID_00000127742456824290747090000012024183650337376643_" gradientUnits="userSpaceOnUse" x1="3270.3889" y1="762.024" x2="1400.9762" y2="2750.0608">
			<stop  offset="0" style="stop-color:#0131B8"/>
			<stop  offset="1" style="stop-color:#39D4FF"/>
		</linearGradient>
		
			<rect x="686.113" y="2.561" style="clip-path:url(#SVGID_00000176010061636905204760000012358923516941008780_);fill:url(#SVGID_00000127742456824290747090000012024183650337376643_);" width="3313.799" height="3491.372"/>
	</g>
	<g>
		<defs>
			<path id="SVGID_00000078033920844504331040000004597923197372776858_" d="M817.923,2.561
				c-9.565,12.656-18.458,25.351-26.552,38.098c-112.52,177.034-79.41,362.256,237.752,549.693l0.432,0.208
				c89.851,38.916,217.791,70.747,354.662,104.8c218.567,54.371,459.994,114.442,603.537,217.528
				c144.446,103.748,189.511,251.794,10.769,483.212l-0.49,0.636l-0.175,0.773c-55.627,242.508,309.908,342.36,684.421,444.672
				c266.59,72.812,537.774,146.897,662.58,273.931c122.878,125.066,103.348,302.658-204.138,583.615
				c-405.201,322.074-486.507,509.504-390.76,621.524c120.329,140.774,521.676,159.761,909.303,178.086
				c117.592,5.558,233.917,11.059,340.649,19.87v-7.383c-106.699-8.792-222.859-14.286-340.285-19.838
				c-385.964-18.24-785.581-37.15-903.77-175.404c-92.819-108.598-11.133-292.567,389.756-611.206l0.201-0.175
				c311.785-284.833,330.607-465.867,204.583-594.135c-126.258-128.507-398.454-202.865-666.041-275.957
				c-370.63-101.241-732.357-200.073-679.2-435.302c181.57-235.482,135.033-386.607-12.854-492.816
				c-144.771-103.981-386.941-164.235-606.174-218.774c-136.472-33.948-264.044-65.682-353.185-104.241
				C720.776,399.428,687.763,217.764,797.88,44.503c8.919-14.033,18.783-28.013,29.497-41.942H817.923z"/>
		</defs>
		<clipPath id="SVGID_00000155855866987981639850000010049650466782481289_">
			<use xlink:href="#SVGID_00000078033920844504331040000004597923197372776858_"  style="overflow:visible;"/>
		</clipPath>
		
			<linearGradient id="SVGID_00000045599646086806763460000003888871997569619363_" gradientUnits="userSpaceOnUse" x1="3274.7688" y1="766.1407" x2="1405.359" y2="2754.1743">
			<stop  offset="0" style="stop-color:#0131B8"/>
			<stop  offset="1" style="stop-color:#39D4FF"/>
		</linearGradient>
		
			<rect x="678.85" y="2.561" style="clip-path:url(#SVGID_00000155855866987981639850000010049650466782481289_);fill:url(#SVGID_00000045599646086806763460000003888871997569619363_);" width="3321.063" height="3516.645"/>
	</g>
	<g>
		<defs>
			<path id="SVGID_00000142145998388096695790000009475423910504978610_" d="M875.579,2.561
				c-32.325,32.968-60.328,66.358-82.955,100.144c-117.563,175.553-91.738,361.12,213.119,550.959l0.442,0.234
				c87.923,40.098,213.745,72.488,347.256,106.852c197.122,50.741,411.094,105.826,542.985,195.976
				c136.345,93.189,184.735,224.515,34.513,428.874l-0.643,0.877l-0.065,1.032c-12.253,198.008,337.672,280.989,705.476,368.204
				c302.09,71.63,616.326,146.151,749.155,288.626c125.118,134.215,88.618,330.061-272.973,643.486
				c-455.234,353.698-552.021,555.816-454.026,673.109c123.28,147.56,556.254,158.001,969.599,167.969
				c129.495,3.117,257.054,6.195,372.451,13.416v-7.364c-115.413-7.208-242.882-10.279-372.273-13.396
				c-411.601-9.922-842.763-20.318-963.842-165.242c-95.118-113.845,2.055-312.522,453.043-662.895l0.162-0.117
				c365.844-317.126,401.708-516.4,273.538-653.895c-134.384-144.157-449.806-218.95-753.016-290.847
				c-364.016-86.325-710.321-168.462-699.697-359.633c152.728-208.378,102.79-342.672-36.981-438.198
				c-133.043-90.942-347.691-146.202-545.436-197.099c-133.069-34.254-258.486-66.539-345.665-106.241
				C709.779,460.539,683.967,278.55,799.036,106.704c23.526-35.13,52.916-69.864,87.036-104.144H875.579z"/>
		</defs>
		<clipPath id="SVGID_00000170278032753452349210000011812213567590380689_">
			<use xlink:href="#SVGID_00000142145998388096695790000009475423910504978610_"  style="overflow:visible;"/>
		</clipPath>
		
			<linearGradient id="SVGID_00000091734571330059385650000013535402192925955222_" gradientUnits="userSpaceOnUse" x1="3279.5298" y1="770.6182" x2="1410.1184" y2="2758.6533">
			<stop  offset="0" style="stop-color:#0131B8"/>
			<stop  offset="1" style="stop-color:#39D4FF"/>
		</linearGradient>
		
			<rect x="675.061" y="2.561" style="clip-path:url(#SVGID_00000170278032753452349210000011812213567590380689_);fill:url(#SVGID_00000091734571330059385650000013535402192925955222_);" width="3324.851" height="3539.756"/>
	</g>
	<g>
		<defs>
			<path id="SVGID_00000088120950595081781170000000809639952025124257_" d="M948.239,2.561
				c-62.893,52.442-115.884,106.261-154.706,161.307C670.496,338.336,688.941,524.545,982.375,716.976l0.432,0.24
				c86.157,41.604,210.213,74.702,340.535,109.481c174.375,46.52,360.048,96.072,480.036,172.69
				c129.56,82.728,182.297,197.586,59.949,375.743l-0.825,1.195l0.227,1.403c25.253,157.365,358.042,223.762,716.548,295.288
				c340.964,68.02,705.327,140.722,847.026,299.359c127.693,142.943,73.906,357.061-343.1,703.428
				c-505.855,385.575-618.206,602.33-517.926,724.681c126.348,154.157,591.657,155.501,1030.761,156.768
				c141.456,0.403,280.184,0.805,403.874,6.305v-7.364c-123.745-5.481-262.454-5.877-403.88-6.286
				c-437.302-1.266-900.699-2.61-1024.778-153.982c-97.439-118.891,15.257-332.191,516.803-714.441l0.12-0.091
				c421.338-349.964,474.578-567.557,343.925-713.824c-143.394-160.521-509.089-233.489-851.286-301.756
				c-354.75-70.773-684.113-136.501-710.275-287.885c124.43-182.092,70.033-299.756-62.942-384.678
				c-121.004-77.273-307.278-126.975-482.225-173.651c-129.849-34.65-253.45-67.63-338.915-108.845
				C697.905,521.442,679.386,338.81,799.851,167.997C839.66,111.549,894.595,56.34,959.927,2.561H948.239z"/>
		</defs>
		<clipPath id="SVGID_00000078044764513343732820000015565611503841545150_">
			<use xlink:href="#SVGID_00000088120950595081781170000000809639952025124257_"  style="overflow:visible;"/>
		</clipPath>
		
			<linearGradient id="SVGID_00000089544800036566827510000003604809723063422861_" gradientUnits="userSpaceOnUse" x1="3283.6206" y1="774.4606" x2="1414.2091" y2="2762.4961">
			<stop  offset="0" style="stop-color:#0131B8"/>
			<stop  offset="1" style="stop-color:#39D4FF"/>
		</linearGradient>
		
			<rect x="670.496" y="2.561" style="clip-path:url(#SVGID_00000078044764513343732820000015565611503841545150_);fill:url(#SVGID_00000089544800036566827510000003604809723063422861_);" width="3329.417" height="3560.996"/>
	</g>
	<g>
		<defs>
			<path id="SVGID_00000126312783216475394250000016349717531397757329_" d="M1035.785,2.561
				C935.531,73.412,851.176,147.393,794.244,224.082c-129.001,173.787-118.072,360.97,164.748,556.199l0.425,0.253
				c84.79,43.585,207.573,77.591,334.944,112.871c149.18,41.306,304.717,84.377,411.99,146.391
				c125.465,72.533,184.777,171.417,89.351,324.912l-1.026,1.662l0.818,1.74c56.614,120.481,369.789,170.917,715.155,226.547
				c383.477,61.76,806.844,129.949,958.437,305.775c130.439,151.274,58.987,383.704-414.555,763.35
				c-556.852,417.594-684.846,648.908-582.248,776.123c129.537,160.618,627.885,152.352,1092.833,144.625
				c153.449-2.545,303.249-5.032,434.796-1.383v-7.357c-131.68-3.649-281.493-1.169-434.942,1.383
				c-463.101,7.701-959.479,15.935-1086.668-141.774c-99.796-123.741,28.516-351.574,580.982-765.857l0.088-0.078
				c477.948-383.178,548.907-619.096,415.578-773.733c-153.42-177.943-578.248-246.372-963.043-308.347
				c-341.613-55.02-651.512-104.949-708.61-220.632c96.897-157.306,35.789-258.788-93.033-333.256
				c-108.163-62.533-264.171-105.735-413.799-147.17c-126.881-35.137-249.187-69.013-333.22-112.157
				C685.214,582.169,674.1,398.557,800.435,228.381c58.03-78.176,144.914-153.612,248.249-225.82H1035.785z"/>
		</defs>
		<clipPath id="SVGID_00000015347057890969093640000006493487249065913745_">
			<use xlink:href="#SVGID_00000126312783216475394250000016349717531397757329_"  style="overflow:visible;"/>
		</clipPath>
		
			<linearGradient id="SVGID_00000160148427623280628710000012116067345493149062_" gradientUnits="userSpaceOnUse" x1="3291.45" y1="781.8251" x2="1422.0389" y2="2769.8599">
			<stop  offset="0" style="stop-color:#0131B8"/>
			<stop  offset="1" style="stop-color:#39D4FF"/>
		</linearGradient>
		
			<rect x="665.243" y="2.561" style="clip-path:url(#SVGID_00000015347057890969093640000006493487249065913745_);fill:url(#SVGID_00000160148427623280628710000012116067345493149062_);" width="3334.67" height="3597.964"/>
	</g>
	<g>
		<defs>
			<path id="SVGID_00000008870975135451631680000012447315337319179173_" d="M1138.347,2.561
				C994.875,90.522,872.16,184.445,794.861,283.401C659.382,456.844,662.649,645.319,935.622,843.587l0.403,0.26
				c83.936,46.267,206.333,81.449,331.279,117.365c118.241,33.987,238.791,68.637,330.558,113.813
				c128.215,63.117,200.219,147.034,130.18,279.346l-1.192,2.24l1.744,1.87c81.277,87.397,371.337,122.852,698.366,162.819
				c429.627,52.507,923.339,112.845,1086.071,307.308c133.271,159.261,43.789,409.997-487.228,823.201
				c-608.112,449.705-751.792,695.46-646.862,827.409c132.8,166.982,664.979,148.592,1155.879,131.618
				c165.41-5.721,326.123-11.273,465.095-9.539v-7.351c-139.18-1.74-299.928,3.805-465.381,9.526
				C3045.515,3620.375,2515.384,3638.7,2385,3474.751c-102.16-128.456,41.815-370.73,645.505-817.162l0.081-0.052
				c535.456-416.653,624.492-670.888,488.377-833.546c-164.67-196.781-660.021-257.327-1091.064-310.009
				c-323.23-39.507-610.145-74.585-691.869-158.605c70.663-136.014-3.295-222.216-134.715-286.905
				c-92.413-45.487-213.278-80.241-331.85-114.319c-124.397-35.754-246.284-70.793-329.464-116.592
				C671.749,642.624,668.23,457.74,800.955,287.823c78.52-100.527,204.482-195.956,351.591-285.262H1138.347z"/>
		</defs>
		<clipPath id="SVGID_00000018221915198210618100000002041847104149592506_">
			<use xlink:href="#SVGID_00000008870975135451631680000012447315337319179173_"  style="overflow:visible;"/>
		</clipPath>
		
			<linearGradient id="SVGID_00000101091641961489039660000008252381646680179900_" gradientUnits="userSpaceOnUse" x1="3301.2905" y1="791.0817" x2="1431.8802" y2="2779.1157">
			<stop  offset="0" style="stop-color:#0131B8"/>
			<stop  offset="1" style="stop-color:#39D4FF"/>
		</linearGradient>
		
			<rect x="659.382" y="2.561" style="clip-path:url(#SVGID_00000018221915198210618100000002041847104149592506_);fill:url(#SVGID_00000101091641961489039660000008252381646680179900_);" width="3340.53" height="3643.64"/>
	</g>
	<g>
		<defs>
			<path id="SVGID_00000047025796596475271950000017603914207278286769_" d="M1256.283,2.561
				c-191.469,103.494-360.412,217.132-460.715,339.217C653.041,515.234,648.411,705.313,912.255,906.886l0.354,0.253
				c84.092,50.111,207.713,86.884,331.094,123.559c65.504,19.474,130.959,38.942,190.359,60.377
				c159.342,57.507,274.408,129.053,226.258,253.106l-1.091,2.825l2.682,1.584c98.572,58.455,360.746,80.247,662.421,105.326
				c479.117,39.831,1058.207,87.968,1233.646,303.035c136.157,166.917,28.306,435.939-560.894,882.851
				c-659.642,481.919-819.059,742.084-711.788,878.617c136.124,173.261,702.957,144.261,1219.925,117.813
				c177.29-9.078,348.711-17.844,494.692-18.065v-7.357c-146.183,0.221-317.707,8.994-495.121,18.072
				c-515.017,26.351-1079.723,55.247-1213.406-114.904c-104.51-133.021,55.182-389.678,710.353-868.332l0.055-0.045
				c593.674-450.309,701.142-722.863,562.196-893.189c-177.489-217.573-758.393-265.872-1239.026-305.827
				c-298.048-24.779-557.378-46.345-656.415-102.728c47.481-127.93-69.699-201.164-231.823-259.684
				c-59.471-21.461-125.111-40.981-190.791-60.507c-122.852-36.52-245.921-73.117-329.184-122.709
				C657.558,702.826,661.86,516.331,801.533,346.336c101.676-123.754,274.742-238.989,470.361-343.776H1256.283z"/>
		</defs>
		<clipPath id="SVGID_00000000193081708529286310000016427479753083567232_">
			<use xlink:href="#SVGID_00000047025796596475271950000017603914207278286769_"  style="overflow:visible;"/>
		</clipPath>
		
			<linearGradient id="SVGID_00000035528497089140198990000013275265707729602700_" gradientUnits="userSpaceOnUse" x1="3309.729" y1="799.0147" x2="1440.3176" y2="2787.05">
			<stop  offset="0" style="stop-color:#0131B8"/>
			<stop  offset="1" style="stop-color:#39D4FF"/>
		</linearGradient>
		
			<rect x="648.411" y="2.561" style="clip-path:url(#SVGID_00000000193081708529286310000016427479753083567232_);fill:url(#SVGID_00000035528497089140198990000013275265707729602700_);" width="3351.501" height="3689.121"/>
	</g>
	<g>
		<defs>
			<path id="SVGID_00000126312744355787327810000000122069664443203254_" d="M1390.327,2.561
				c-243.067,117.085-467.39,250.262-593.842,396.614C646.308,572.987,633.47,765.021,888.861,970.198l0.305,0.221
				c86.192,56.13,214.262,95.02,337.931,132.579c196.716,59.741,382.204,116.072,365.48,231.405l-0.445,3.045l3.039,0.961
				c107.352,33.955,335.272,43.916,602.109,55.559c530.897,23.188,1216.302,53.104,1406.534,291.515
				c139.063,174.287,12.523,461.582-635.46,942.339c-711.369,514.218-886.552,788.701-776.945,929.702
				c139.54,179.508,741.834,139.43,1284.962,103.274c189.109-12.591,371.042-24.695,523.54-26.903v-7.364
				c-152.755,2.201-334.834,14.318-524.089,26.916c-541.16,36.02-1141.272,75.955-1278.319-100.338
				c-106.871-137.475,68.582-408.464,775.47-919.43l0.032-0.019c652.479-484.095,778.672-774.935,636.856-952.663
				c-192.375-241.106-879.799-271.119-1412.249-294.366c-263.794-11.52-489.445-21.383-597.096-54.325
				c13.971-119.352-172.949-176.144-371.13-236.333c-123.053-37.37-250.496-76.072-335.737-131.521
				c-250.944-201.67-238.56-390.127-91.299-560.556c128.046-148.202,357.552-283.054,605.089-401.334H1390.327z"/>
		</defs>
		<clipPath id="SVGID_00000143583879855133042480000014941197957754828184_">
			<use xlink:href="#SVGID_00000126312744355787327810000000122069664443203254_"  style="overflow:visible;"/>
		</clipPath>
		
			<linearGradient id="SVGID_00000143595767815065571850000010466435738335237304_" gradientUnits="userSpaceOnUse" x1="3317.0801" y1="805.9277" x2="1447.6683" y2="2793.9634">
			<stop  offset="0" style="stop-color:#0131B8"/>
			<stop  offset="1" style="stop-color:#39D4FF"/>
		</linearGradient>
		
			<rect x="633.47" y="2.561" style="clip-path:url(#SVGID_00000143583879855133042480000014941197957754828184_);fill:url(#SVGID_00000143595767815065571850000010466435738335237304_);" width="3366.443" height="3734.472"/>
	</g>
	<g>
		<defs>
			<path id="SVGID_00000146485701235589978620000000004302812270945719_" d="M1541.63,2.561
				c-296.639,128.248-587.378,280.833-743.831,453.056c-158.498,174.469-179.872,368.763,67.689,577.881l0.25,0.182
				c92.829,66.91,233.359,108.65,361.561,146.729c145.04,43.078,274.184,81.436,297.924,145.163l0.786,2.091l2.276,0.312
				c105.595,14.461,290.301,15.065,509.04,15.779c581.839,1.909,1404.998,4.604,1613.078,270.457
				c141.975,181.398-3.542,486.939-710.769,1001.631c-763.282,546.563-954.284,835.331-842.341,980.696
				c143.014,185.716,781.639,134.073,1351.027,88.033c200.826-16.247,393.02-31.786,551.592-35.981v-7.364
				c-158.836,4.201-351.227,19.747-552.254,36.007c-567.381,45.89-1203.75,97.345-1344.235-85.085
				c-109.225-141.832,82.027-427.094,840.789-970.41c711.775-518.004,856.965-827.111,712.288-1011.969
				c-210.349-268.749-1035.732-271.45-1619.149-273.359c-216.947-0.714-400.36-1.318-505.774-15.416
				c-26.971-65.903-156.612-104.423-302.051-147.618c-127.501-37.877-267.272-79.39-359.052-145.462
				c-243.268-205.521-222.437-396.263-66.936-567.44c158.332-174.287,455.572-328.639,756.782-457.913H1541.63z"/>
		</defs>
		<clipPath id="SVGID_00000140010827685535411490000005102116155267510408_">
			<use xlink:href="#SVGID_00000146485701235589978620000000004302812270945719_"  style="overflow:visible;"/>
		</clipPath>
		
			<linearGradient id="SVGID_00000087389485446004841760000005612382143357325238_" gradientUnits="userSpaceOnUse" x1="3324.2397" y1="812.6601" x2="1454.8268" y2="2800.697">
			<stop  offset="0" style="stop-color:#0131B8"/>
			<stop  offset="1" style="stop-color:#39D4FF"/>
		</linearGradient>
		
			<rect x="617.927" y="2.561" style="clip-path:url(#SVGID_00000140010827685535411490000005102116155267510408_);fill:url(#SVGID_00000087389485446004841760000005612382143357325238_);" width="3381.985" height="3779.693"/>
	</g>
	<g>
		<defs>
			<path id="SVGID_00000016057623668294911670000006530024136798367901_" d="M1711.816,2.561
				c-349.711,136.241-720.831,308.158-912.153,508.491c-167.527,175.43-197.859,372.341,42.461,585.751l0.14,0.097
				c114.839,93.15,297.08,136.17,441.656,170.287c72.799,17.176,136.021,32.104,175.761,49.91l0.753,0.344l0.815,0.006
				c88.384,0.987,216.771-4.065,368.344-10.033c622.58-24.513,1637.101-64.462,1868.051,235.69
				c144.878,188.287-19.854,512.069-786.73,1060.755c-815.351,578.959-1022.184,881.962-907.92,1031.599
				c146.553,191.917,822.37,128.261,1418.096,72.137c212.414-20.013,414.624-39.059,578.823-45.228v-7.37
				c-164.424,6.169-366.886,25.24-579.566,45.273c-593.713,55.936-1267.234,119.384-1411.216-69.169
				c-111.576-146.105,95.511-445.601,906.309-1021.333c771.445-551.939,935.884-879.293,788.334-1071.047
				c-233.356-303.275-1250.396-263.242-1874.512-238.658c-151.03,5.948-279.022,10.981-367.123,10.026
				c-40.513-17.981-103.702-32.903-176.407-50.059c-143.764-33.922-324.967-76.695-438.435-168.651
				c-236.184-209.729-206.489-403.114-42.023-575.336c193.57-202.69,572.917-376.49,926.933-513.485H1711.816z"/>
		</defs>
		<clipPath id="SVGID_00000062889259563377424290000001466700957991105928_">
			<use xlink:href="#SVGID_00000016057623668294911670000006530024136798367901_"  style="overflow:visible;"/>
		</clipPath>
		
			<linearGradient id="SVGID_00000009556278174515611290000016161028681957266855_" gradientUnits="userSpaceOnUse" x1="3331.2227" y1="819.2227" x2="1461.8102" y2="2807.259">
			<stop  offset="0" style="stop-color:#0131B8"/>
			<stop  offset="1" style="stop-color:#39D4FF"/>
		</linearGradient>
		
			<rect x="601.804" y="2.561" style="clip-path:url(#SVGID_00000062889259563377424290000001466700957991105928_);fill:url(#SVGID_00000009556278174515611290000016161028681957266855_);" width="3398.108" height="3824.816"/>
	</g>
	<g>
		<defs>
			<path id="SVGID_00000042703858860215921500000011947361956490192021_" d="M1903.331,2.561
				c-398.052,139.845-868.455,331.191-1101.083,562.914c-177.349,176.664-217.132,376.535,16.503,594.622
				c66.186,61.78,150.04,100.897,239.931,123.787c109.874,27.981,228.778,31.714,335.402,22.987
				c42.341-3.468,92.124-7.857,147.657-12.753c614.924-54.26,1939.087-171.079,2203.712,178.066
				c147.774,194.982-36.413,536.972-863.267,1119.691c-867.549,611.407-1090.281,928.611-973.683,1082.444
				c150.157,198.125,864.069,121.969,1486.239,55.598c223.898-23.883,435.896-46.487,605.17-54.611v-7.357
				c-169.628,8.117-381.86,30.74-606.018,54.656c-620.122,66.156-1331.676,142.06-1479.223-52.611
				c-113.92-150.313,109.033-463.984,972.008-1072.171c831.426-585.946,1015.343-931.521,864.939-1129.964
				c-267.184-352.535-1594.302-235.443-2210.599-181.066c-55.231,4.87-104.744,9.234-147.602,12.747
				c-105.874,8.662-223.878,4.974-332.795-22.76c-88.692-22.591-171.384-61.137-236.547-121.969
				c-229.596-214.313-190.553-410.679-16.344-584.206c235.427-234.508,716.567-427.874,1117.973-568.044H1903.331z"/>
		</defs>
		<clipPath id="SVGID_00000018956881034090933260000005141290388999840909_">
			<use xlink:href="#SVGID_00000042703858860215921500000011947361956490192021_"  style="overflow:visible;"/>
		</clipPath>
		
			<linearGradient id="SVGID_00000011738912375214342850000011659710588974540964_" gradientUnits="userSpaceOnUse" x1="3338.0366" y1="825.6352" x2="1468.626" y2="2813.6697">
			<stop  offset="0" style="stop-color:#0131B8"/>
			<stop  offset="1" style="stop-color:#39D4FF"/>
		</linearGradient>
		
			<rect x="585.116" y="2.561" style="clip-path:url(#SVGID_00000018956881034090933260000005141290388999840909_);fill:url(#SVGID_00000011738912375214342850000011659710588974540964_);" width="3414.797" height="3869.882"/>
	</g>
</g>
</svg>
